<?xml version="1.0" encoding="utf-8"?>
<!-- Generator: Adobe Illustrator 25.4.3, SVG Export Plug-In . SVG Version: 6.00 Build 0)  -->
<svg version="1.1" id="Layer_1" xmlns="http://www.w3.org/2000/svg" xmlns:xlink="http://www.w3.org/1999/xlink" x="0px" y="0px"
	 viewBox="0 0 309.5 309.5" enable-background="new 0 0 309.5 309.5" xml:space="preserve">
<linearGradient id="Record_00000103224125933307478330000012393665220728334988_" gradientUnits="userSpaceOnUse" x1="0" y1="154.7269" x2="233" y2="154.7269">
	<stop  offset="0" style="stop-color:#E65845"/>
	<stop  offset="7.831275e-02" style="stop-color:#E54C4A"/>
	<stop  offset="0.2647" style="stop-color:#E23652"/>
	<stop  offset="0.4668" style="stop-color:#E02558"/>
	<stop  offset="0.6943" style="stop-color:#DF1C5C"/>
	<stop  offset="1" style="stop-color:#DF195D"/>
</linearGradient>
<path id="Record_00000173124283279018529000000011883132504824379037_" fill="url(#Record_00000103224125933307478330000012393665220728334988_)" d="
	M137.5,154.7c0,11.6-9.4,21-21,21s-21-9.4-21-21s9.4-21,21-21S137.5,143.1,137.5,154.7z M116.7,93.2c33.8,0.1,61.3,27.7,61.3,61.5
	c0,11.1-3,21.5-8.1,30.5H229c2.6-9.7,4-20,4-30.5c0-64.2-52.3-116.5-116.5-116.5c-0.2,0-0.4,0-0.6,0c-0.8,0-1.5,0.4-1.8,1.1
	c-0.3,0.7-0.2,1.5,0.2,2.1c1.4,1.8,2.2,4,2.2,6.5c0,2.5-0.9,4.9-2.4,6.7c-1.2,1.5-1.2,3.6,0,5.1c1.5,1.8,2.4,4.1,2.4,6.7
	c0,2.5-0.9,4.9-2.4,6.7c-1.2,1.5-1.2,3.6,0,5.1c1.2,1.4,2,3.2,2.3,5.1c0.4,2.5-0.2,4.9-1.4,6.9c-0.4,0.6-0.4,1.4,0,2
	C115.4,92.8,116,93.2,116.7,93.2z M192,239.2c-2.2-0.5-4.3-1.6-5.8-3.4c-1.7-1.9-2.5-4.3-2.5-6.6c0-1.9-1.4-3.5-3.3-3.9
	c-2.3-0.4-4.5-1.6-6.2-3.5c-1.7-1.9-2.5-4.3-2.5-6.6c0-1.9-1.4-3.5-3.3-3.9c-2.3-0.4-4.5-1.6-6.2-3.5c-1.3-1.5-2.1-3.2-2.4-5
	c-0.1-0.7-0.6-1.3-1.3-1.5s-1.4-0.1-2,0.4c-10.7,9.2-24.7,14.7-39.9,14.7c-33.9,0-61.5-27.6-61.5-61.5c0-21.7,11.3-40.8,28.3-51.8
	c0.6-0.4,1-1.1,0.9-1.8c0-0.7-0.5-1.4-1.1-1.7c-1.6-0.8-3.1-2.1-4.1-3.7c-1.4-2.1-1.9-4.6-1.6-6.9c0.2-1.9-0.9-3.7-2.7-4.3
	c-2.2-0.7-4.3-2.2-5.6-4.4c-1.4-2.1-1.9-4.6-1.6-6.9c0.2-1.9-0.9-3.7-2.7-4.3c-2.2-0.7-4.2-2.2-5.6-4.3c-1.3-2-1.8-4.4-1.6-6.6
	c0.1-0.8-0.3-1.5-0.9-1.9c-0.6-0.4-1.5-0.4-2.1,0C21.8,76.8,0,113.3,0,154.7C0,219,52.3,271.2,116.5,271.2
	c29.2,0,55.9-10.8,76.4-28.6c0.6-0.5,0.8-1.3,0.6-2C193.3,239.9,192.7,239.3,192,239.2z"/>
<linearGradient id="Arm_00000100349289527258555840000003289324448898892704_" gradientUnits="userSpaceOnUse" x1="169.9101" y1="113.2268" x2="309.4537" y2="113.2268">
	<stop  offset="0" style="stop-color:#E65845"/>
	<stop  offset="1" style="stop-color:#E33A51"/>
</linearGradient>
<polygon id="Arm_00000090264700105006478150000009039840701165889196_" fill="url(#Arm_00000100349289527258555840000003289324448898892704_)" points="
	232.3,185.2 309.5,41.2 247.1,41.2 169.9,185.2 "/>
</svg>
