<?xml version="1.0" standalone="no"?>
<!DOCTYPE svg PUBLIC "-//W3C//DTD SVG 20010904//EN"
 "http://www.w3.org/TR/2001/REC-SVG-20010904/DTD/svg10.dtd">
<svg version="1.0" xmlns="http://www.w3.org/2000/svg"
 width="1240.000000pt" height="1240.000000pt" viewBox="0 0 1240.000000 1240.000000"
 preserveAspectRatio="xMidYMid meet">
<metadata>
Created by potrace 1.14, written by Peter Selinger 2001-2017
</metadata>
<g transform="translate(0.000000,1240.000000) scale(0.100000,-0.100000)"
fill="#000000" stroke="none">
<path d="M4597 10857 c-34 -27 -39 -106 -8 -127 15 -10 62 -121 71 -168 8 -47
7 -130 -4 -180 -8 -36 -52 -128 -79 -164 -25 -34 -43 -82 -41 -108 1 -8 2 -24
3 -36 0 -12 17 -42 36 -68 20 -25 32 -46 28 -46 -4 0 -3 -4 2 -8 15 -10 43
-79 54 -131 12 -58 6 -151 -15 -215 -17 -50 -58 -125 -76 -137 -15 -10 -35
-92 -31 -124 2 -16 24 -60 48 -97 100 -151 107 -285 24 -464 -18 -37 -18 -43
-4 -72 19 -37 39 -45 130 -48 99 -3 231 -15 313 -29 17 -3 44 -7 60 -9 106
-18 285 -66 382 -103 8 -3 20 -7 25 -8 46 -12 363 -159 375 -175 3 -3 25 -17
50 -31 25 -13 47 -26 50 -30 3 -3 21 -15 40 -27 20 -11 47 -30 59 -42 13 -11
27 -20 31 -20 3 0 15 -8 26 -18 10 -10 37 -31 59 -47 22 -17 55 -45 73 -62 18
-18 35 -33 37 -33 16 0 234 -235 305 -330 14 -18 31 -39 38 -46 6 -7 12 -17
12 -22 0 -5 9 -17 20 -27 11 -10 20 -23 20 -30 0 -7 9 -20 20 -30 11 -10 20
-22 20 -28 0 -5 10 -23 23 -40 26 -37 33 -50 97 -177 57 -112 70 -144 116
-270 42 -115 95 -310 88 -321 -3 -5 -1 -9 3 -9 5 0 9 -8 9 -17 1 -10 4 -36 8
-58 4 -22 9 -53 11 -70 2 -16 7 -55 12 -85 16 -118 8 -532 -14 -635 -3 -16 -7
-41 -9 -55 -1 -14 -5 -36 -8 -50 -10 -43 -16 -74 -20 -95 -25 -131 -116 -377
-202 -545 -30 -59 -54 -109 -54 -111 0 -2 561 -4 1247 -3 l1248 0 23 45 c13
24 27 46 30 49 4 3 8 10 9 15 1 6 20 43 42 84 23 41 41 78 41 82 0 5 5 9 12 9
6 0 8 3 5 7 -4 3 0 17 9 31 9 13 28 47 43 76 16 28 47 87 71 131 62 114 115
215 178 335 30 58 59 108 64 111 5 3 10 12 11 20 2 8 15 36 30 63 15 27 27 52
27 57 0 5 5 9 12 9 6 0 9 3 5 6 -3 3 8 27 24 54 16 26 29 50 29 54 0 4 16 34
35 67 19 32 31 59 27 59 -4 0 -2 4 4 8 12 8 45 68 43 78 0 4 3 10 8 13 4 3 19
29 33 56 14 28 28 52 31 55 3 3 15 25 27 50 36 74 108 209 119 222 6 7 14 24
18 38 4 14 11 27 14 30 13 10 51 81 51 96 0 8 3 14 8 14 4 0 13 14 21 31 7 16
46 89 85 162 40 73 97 178 127 235 30 57 68 129 84 160 17 31 49 91 70 132 22
41 42 77 45 80 3 3 25 43 49 90 24 47 56 108 71 135 15 28 48 91 74 140 86
161 91 170 101 177 6 4 7 8 2 8 -4 0 3 17 16 38 13 20 36 62 51 92 16 30 37
70 48 88 11 17 16 32 11 32 -4 0 -3 4 3 8 7 4 31 43 53 87 23 44 46 87 51 95
27 47 58 106 61 115 1 6 15 32 31 58 15 26 28 50 28 53 0 3 9 19 21 35 11 16
17 29 12 29 -4 0 -3 4 3 8 5 4 26 39 46 77 42 84 76 146 90 163 6 6 7 12 3 12
-4 0 -2 6 4 14 16 19 98 171 118 219 9 20 20 37 25 37 4 0 8 7 8 16 0 9 9 27
20 41 11 14 20 32 20 39 0 8 5 14 10 14 6 0 10 8 10 18 0 10 4 22 9 27 6 6 30
48 54 95 24 47 53 100 65 119 12 19 19 38 16 43 -3 4 -1 8 4 8 6 0 20 21 32
48 12 26 25 49 29 52 3 3 37 66 75 140 38 74 72 137 76 140 6 5 18 33 20 48 1
4 9 15 17 25 9 9 12 17 7 17 -5 0 -4 4 2 8 5 4 23 32 38 62 16 30 44 83 63
118 l35 62 -1252 -2 -1252 -3 -27 -50 c-61 -114 -137 -255 -177 -330 -24 -44
-58 -109 -76 -145 -18 -36 -36 -67 -39 -70 -3 -3 -19 -32 -36 -65 -17 -33 -45
-87 -63 -120 -18 -33 -55 -103 -83 -155 -27 -52 -53 -99 -57 -105 -4 -5 -38
-68 -75 -140 -37 -71 -71 -134 -75 -140 -4 -5 -34 -62 -67 -125 -33 -63 -69
-131 -80 -150 -11 -19 -48 -89 -83 -155 -35 -66 -67 -121 -72 -123 -4 -2 -8
-11 -8 -21 0 -9 -4 -21 -9 -27 -4 -5 -28 -45 -51 -89 -110 -205 -120 -222
-120 -197 0 7 -16 38 -35 68 -19 30 -35 57 -35 60 0 8 -44 69 -52 72 -5 2 -8
8 -8 13 0 5 -16 33 -37 62 -92 132 -128 182 -133 187 -3 3 -18 23 -35 45 -16
22 -32 42 -35 45 -3 3 -28 33 -54 68 -27 34 -53 62 -57 62 -5 0 -9 4 -9 10 0
5 -15 26 -32 46 -66 74 -385 391 -443 439 -32 28 -70 60 -83 73 -12 12 -27 22
-32 22 -4 0 -10 3 -12 8 -4 10 -104 92 -112 92 -3 0 -14 8 -25 18 -27 24 -62
51 -93 70 -16 9 -28 20 -28 24 0 4 -6 8 -13 8 -8 0 -22 9 -32 20 -10 11 -24
20 -32 20 -7 0 -13 4 -13 10 0 5 -11 12 -25 16 -14 3 -25 10 -25 15 0 4 -16
15 -35 24 -19 9 -39 23 -46 31 -6 8 -18 14 -25 14 -8 0 -14 5 -14 10 0 6 -5
10 -10 10 -6 0 -34 15 -63 33 -29 18 -65 39 -82 47 -16 8 -32 17 -35 20 -3 3
-32 19 -65 35 -33 17 -63 35 -67 40 -4 6 -8 7 -8 3 0 -4 -44 15 -97 41 -54 27
-115 55 -135 62 -21 7 -38 17 -38 23 0 5 -3 6 -6 3 -4 -3 -16 -1 -28 5 -11 7
-23 13 -26 13 -3 1 -18 7 -35 14 -16 6 -55 21 -85 32 -30 11 -63 25 -72 30
-10 5 -26 9 -36 9 -10 0 -22 3 -26 7 -3 4 -12 8 -19 9 -7 1 -55 17 -107 34
-52 17 -102 33 -110 35 -8 2 -70 17 -138 34 -68 17 -135 33 -150 36 -15 3 -37
7 -49 10 -52 12 -62 14 -99 20 -22 4 -50 8 -64 11 -14 2 -41 6 -60 9 -19 2
-48 6 -65 9 -43 7 -111 16 -175 22 -30 3 -73 7 -95 10 -22 2 -128 7 -235 10
-160 4 -198 2 -213 -9z"/>
<path d="M2200 10156 c-72 -31 -447 -305 -576 -421 -6 -5 -46 -41 -88 -79 -77
-69 -276 -265 -276 -271 0 -2 -17 -21 -37 -42 -21 -21 -60 -65 -88 -98 -27
-32 -56 -64 -63 -71 -6 -7 -12 -17 -12 -23 0 -6 -4 -11 -9 -11 -5 0 -28 -26
-52 -57 -24 -32 -47 -62 -52 -68 -4 -5 -42 -57 -83 -115 -40 -58 -78 -110 -84
-117 -5 -7 -10 -15 -10 -18 0 -4 -11 -21 -24 -38 -29 -40 -131 -211 -177 -297
-18 -36 -37 -66 -41 -68 -5 -2 -8 -7 -8 -11 0 -5 -29 -69 -65 -144 -36 -75
-65 -138 -65 -141 0 -3 -11 -29 -24 -58 -35 -76 -99 -241 -99 -255 0 -7 -4
-13 -9 -13 -5 0 -7 -4 -3 -10 3 -5 1 -17 -4 -27 -10 -18 -51 -144 -55 -166 -1
-7 -4 -16 -8 -22 -5 -8 -60 -223 -73 -285 -2 -8 -8 -35 -14 -60 -7 -25 -14
-58 -16 -75 -7 -46 -14 -87 -20 -115 -3 -14 -8 -50 -11 -80 -3 -30 -7 -57 -9
-60 -2 -3 -6 -37 -10 -75 -4 -39 -9 -78 -11 -88 -18 -99 -26 -654 -11 -827 11
-126 21 -223 32 -290 2 -19 8 -55 11 -80 8 -57 18 -115 27 -155 3 -11 8 -40
13 -65 4 -25 8 -47 9 -50 1 -3 5 -21 10 -40 4 -19 9 -42 10 -50 1 -8 5 -22 8
-30 6 -13 18 -63 32 -125 22 -97 155 -475 217 -614 46 -104 172 -358 189 -382
10 -14 16 -28 13 -31 -2 -3 2 -11 11 -18 8 -7 15 -16 15 -20 0 -5 23 -46 51
-92 29 -46 61 -99 73 -118 11 -19 24 -37 28 -38 4 -2 8 -10 8 -17 0 -7 3 -15
8 -17 11 -5 52 -66 52 -78 0 -5 5 -10 10 -10 6 0 10 -4 10 -10 0 -9 19 -35 48
-65 6 -8 12 -18 12 -24 0 -5 6 -14 13 -18 6 -4 25 -27 41 -50 16 -24 33 -43
37 -43 5 0 9 -6 9 -14 0 -8 3 -16 8 -18 4 -1 27 -28 52 -58 127 -155 277 -314
441 -465 58 -54 89 -81 186 -164 15 -13 49 -40 75 -60 27 -19 48 -39 48 -43 0
-4 5 -8 11 -8 6 0 30 -16 53 -35 24 -19 47 -35 51 -35 4 0 13 -6 19 -14 11
-14 282 -196 292 -196 3 0 29 -15 59 -34 50 -33 160 -93 305 -167 36 -18 67
-34 70 -34 5 -2 54 -23 125 -55 22 -10 69 -30 105 -44 36 -15 73 -31 82 -36
10 -6 22 -10 28 -10 6 0 26 -7 46 -15 19 -8 37 -14 39 -14 3 -1 21 -7 40 -15
19 -8 35 -13 35 -10 0 2 14 -2 30 -11 17 -9 30 -13 30 -11 0 3 20 -3 45 -14
25 -11 45 -17 45 -15 0 2 19 -2 41 -11 23 -8 51 -16 63 -19 12 -2 48 -12 81
-20 61 -16 137 -34 165 -39 8 -1 40 -8 70 -14 77 -16 109 -22 154 -28 22 -3
43 -7 46 -9 3 -2 35 -7 70 -10 36 -4 79 -9 95 -12 258 -35 718 -39 1050 -8 17
2 30 4 30 5 0 2 93 12 123 13 12 1 22 4 22 8 0 5 8 6 18 5 9 -2 42 0 72 6 30
5 64 11 75 13 59 10 96 17 155 31 36 9 76 18 90 20 14 3 39 9 56 15 17 5 40
11 50 13 11 2 39 10 64 17 25 7 48 13 53 15 4 1 9 3 12 4 3 1 8 3 13 4 29 8
99 28 110 31 7 3 14 4 17 5 3 0 18 6 34 14 16 9 31 12 35 9 3 -4 6 0 6 7 0 7
3 11 6 7 5 -5 102 27 169 57 17 8 48 20 70 27 22 7 47 19 56 27 9 7 26 14 38
15 11 1 21 5 21 9 0 4 6 8 14 8 7 0 39 14 70 30 31 17 56 27 56 24 0 -4 6 -2
13 4 6 5 47 28 91 51 43 22 85 46 94 53 8 7 18 13 21 12 3 -1 15 4 26 11 11 6
61 35 110 64 121 72 368 237 411 276 7 5 24 19 40 30 26 19 76 58 100 80 7 5
26 21 44 35 87 69 100 85 102 123 2 48 -21 70 -103 97 -137 47 -233 145 -274
282 -8 29 -15 54 -15 56 0 1 0 3 -1 5 0 1 -2 22 -3 47 -4 64 -4 62 -34 95 -31
35 -59 50 -122 66 -108 27 -216 108 -269 203 -28 48 -43 106 -55 205 -6 49
-34 100 -67 119 -12 8 -45 20 -73 28 -28 8 -58 18 -66 21 -8 3 -22 7 -30 9 -8
2 -16 8 -18 13 -2 6 -9 11 -16 11 -7 0 -37 23 -68 50 -60 54 -111 132 -123
190 -4 19 -15 50 -23 67 -27 58 -94 54 -162 -9 -49 -45 -264 -198 -279 -198
-4 0 -17 -9 -29 -20 -12 -12 -22 -18 -22 -16 0 3 -16 -3 -36 -14 -52 -30 -162
-85 -214 -108 -73 -31 -281 -104 -336 -117 -169 -40 -230 -52 -294 -60 -130
-16 -190 -19 -350 -19 -153 0 -285 7 -285 14 0 1 -18 3 -40 5 -43 4 -82 10
-160 26 -27 6 -61 13 -75 15 -14 3 -45 11 -70 19 -25 8 -54 16 -65 18 -11 2
-29 7 -40 11 -11 4 -51 19 -90 32 -87 32 -227 91 -280 120 -170 91 -235 129
-280 166 -5 5 -31 22 -57 39 -27 17 -48 35 -48 40 0 5 -5 9 -11 9 -10 0 -91
66 -149 120 -9 8 -32 29 -51 46 -143 131 -342 384 -444 568 -56 100 -93 175
-89 179 3 2 -2 10 -11 17 -8 7 -15 21 -15 31 0 10 -4 21 -10 24 -5 3 -10 13
-10 20 0 8 -11 39 -25 69 -14 30 -26 63 -28 73 -2 10 -7 25 -10 33 -3 8 -13
40 -22 70 -8 30 -20 69 -24 85 -5 17 -13 48 -17 70 -4 22 -8 45 -10 50 -7 31
-15 74 -20 105 -2 19 -6 49 -9 65 -25 173 -25 503 0 645 2 14 6 43 9 65 10 92
58 283 99 400 12 33 22 65 24 70 13 64 148 336 229 462 18 29 34 55 34 58 0 3
7 13 16 23 8 9 41 52 74 95 63 86 180 217 249 281 24 23 55 52 70 67 44 43
219 179 230 179 6 0 11 5 11 10 0 6 5 10 10 10 11 0 18 5 64 45 16 14 25 25
21 25 -4 0 -3 6 3 13 17 20 17 21 -2 53 -10 17 -34 39 -54 50 -54 29 -162 141
-168 174 0 3 -7 19 -14 35 -21 47 -22 53 -29 175 -5 101 -9 119 -29 140 -12
13 -22 27 -22 30 0 4 -10 11 -22 17 -104 47 -165 83 -196 115 -40 40 -101 135
-107 165 -2 10 -4 18 -5 18 -6 0 -12 55 -15 137 -3 115 -25 163 -87 197 -22
11 -44 21 -50 21 -5 0 -23 9 -39 21 -16 11 -29 17 -29 14 0 -4 -8 1 -17 10
-136 127 -168 192 -177 360 -2 33 -7 67 -10 76 -10 23 -66 38 -96 25z"/>
<path d="M4658 7044 c-3 -2 -36 -6 -74 -9 -38 -2 -85 -8 -104 -14 -70 -18
-145 -45 -148 -53 -2 -4 -11 -8 -21 -8 -55 0 -331 -234 -331 -280 0 -6 -3 -10
-8 -10 -4 0 -12 -9 -17 -19 -82 -159 -97 -200 -121 -336 -6 -32 -6 -210 -1
-235 2 -8 9 -42 16 -75 7 -33 18 -66 23 -72 6 -7 7 -13 3 -13 -4 0 -2 -7 5
-15 7 -8 10 -15 7 -15 -12 0 75 -156 113 -204 43 -53 173 -176 187 -176 3 0
14 -6 22 -14 36 -31 141 -81 191 -90 3 -1 10 -5 16 -9 20 -12 141 -34 183 -33
23 0 41 -2 41 -5 0 -3 12 -4 28 -3 114 10 155 16 207 30 33 9 65 17 70 18 6 2
27 10 47 20 21 9 42 16 48 16 5 0 10 5 10 10 0 6 6 10 13 10 21 0 136 85 199
146 80 78 146 181 198 309 8 19 23 76 36 140 10 43 10 231 1 290 -5 28 -15 70
-24 95 -8 25 -16 50 -17 55 -6 27 -59 127 -91 173 -52 77 -95 124 -157 178
-27 23 -140 101 -148 102 -3 1 -25 10 -50 20 -42 18 -65 27 -82 31 -4 1 -22 7
-40 12 -51 16 -68 19 -138 25 -36 3 -70 7 -77 9 -6 2 -13 2 -15 -1z"/>
</g>
</svg>
