<?xml version="1.0" encoding="utf-8"?>
<!-- Generator: Adobe Illustrator 25.4.3, SVG Export Plug-In . SVG Version: 6.00 Build 0)  -->
<svg version="1.1" id="Layer_1" xmlns="http://www.w3.org/2000/svg" xmlns:xlink="http://www.w3.org/1999/xlink" x="0px" y="0px"
	 viewBox="0 0 168.1 68.8" enable-background="new 0 0 168.1 68.8" xml:space="preserve">
<linearGradient id="Record_00000069358173379482854360000012916430615736397494_" gradientUnits="userSpaceOnUse" x1="0.5" y1="43.5204" x2="50" y2="43.5204">
	<stop  offset="0" style="stop-color:#E65845"/>
	<stop  offset="7.831275e-02" style="stop-color:#E54C4A"/>
	<stop  offset="0.2647" style="stop-color:#E23652"/>
	<stop  offset="0.4668" style="stop-color:#E02558"/>
	<stop  offset="0.6943" style="stop-color:#DF1C5C"/>
	<stop  offset="1" style="stop-color:#DF195D"/>
</linearGradient>
<path id="Record_00000032617695803176698980000007482402446560551863_" fill="url(#Record_00000069358173379482854360000012916430615736397494_)" d="
	M29.7,43.5c0,2.5-2,4.5-4.5,4.5s-4.5-2-4.5-4.5s2-4.5,4.5-4.5S29.7,41.1,29.7,43.5z M25.3,30.5c7.2,0,13,5.9,13,13.1
	c0,2.4-0.6,4.6-1.7,6.5h12.5c0.6-2.1,0.9-4.2,0.9-6.5c0-13.6-11.1-24.8-24.8-24.8c0,0-0.1,0-0.1,0c-0.2,0-0.3,0.1-0.4,0.2
	c-0.1,0.1-0.1,0.3,0,0.4c0.3,0.4,0.5,0.9,0.5,1.4c0,0.5-0.2,1-0.5,1.4c-0.3,0.3-0.3,0.8,0,1.1c0.3,0.4,0.5,0.9,0.5,1.4
	c0,0.5-0.2,1-0.5,1.4c-0.3,0.3-0.3,0.8,0,1.1c0.3,0.3,0.4,0.7,0.5,1.1c0.1,0.5,0,1-0.3,1.5c-0.1,0.1-0.1,0.3,0,0.4
	C25,30.4,25.1,30.5,25.3,30.5z M41.3,61.5c-0.5-0.1-0.9-0.3-1.2-0.7c-0.4-0.4-0.5-0.9-0.5-1.4c0-0.4-0.3-0.8-0.7-0.8
	c-0.5-0.1-1-0.3-1.3-0.7c-0.4-0.4-0.5-0.9-0.5-1.4c0-0.4-0.3-0.8-0.7-0.8c-0.5-0.1-1-0.3-1.3-0.7c-0.3-0.3-0.4-0.7-0.5-1.1
	c0-0.2-0.1-0.3-0.3-0.3c-0.1-0.1-0.3,0-0.4,0.1c-2.3,2-5.2,3.1-8.5,3.1c-7.2,0-13.1-5.9-13.1-13.1c0-4.6,2.4-8.7,6-11
	c0.1-0.1,0.2-0.2,0.2-0.4c0-0.2-0.1-0.3-0.2-0.4c-0.3-0.2-0.7-0.4-0.9-0.8c-0.3-0.5-0.4-1-0.3-1.5c0.1-0.4-0.2-0.8-0.6-0.9
	c-0.5-0.2-0.9-0.5-1.2-0.9c-0.3-0.5-0.4-1-0.3-1.5c0-0.4-0.2-0.8-0.6-0.9c-0.5-0.2-0.9-0.5-1.2-0.9c-0.3-0.4-0.4-0.9-0.3-1.4
	c0-0.2-0.1-0.3-0.2-0.4c-0.1-0.1-0.3-0.1-0.4,0C5.1,27,0.5,34.7,0.5,43.5c0,13.6,11.1,24.8,24.8,24.7c6.2,0,11.9-2.3,16.2-6.1
	c0.1-0.1,0.2-0.3,0.1-0.4C41.6,61.6,41.4,61.5,41.3,61.5z"/>
<linearGradient id="Arm_00000020357397199187983070000005866423060281686189_" gradientUnits="userSpaceOnUse" x1="36.5968" y1="34.7039" x2="66.2423" y2="34.7039">
	<stop  offset="0" style="stop-color:#E65845"/>
	<stop  offset="1" style="stop-color:#E33A51"/>
</linearGradient>
<polygon id="Arm_00000132057304074018041590000007271749937287155842_" fill="url(#Arm_00000020357397199187983070000005866423060281686189_)" points="
	49.9,50 66.2,19.4 53,19.4 36.6,50 "/>
<linearGradient id="SVGID_1_" gradientUnits="userSpaceOnUse" x1="66.0935" y1="25.5687" x2="167.6396" y2="25.5687">
	<stop  offset="0" style="stop-color:#E33A51"/>
	<stop  offset="0.3023" style="stop-color:#E12957"/>
	<stop  offset="0.6529" style="stop-color:#DF1D5C"/>
	<stop  offset="1" style="stop-color:#DF195D"/>
</linearGradient>
<path fill="url(#SVGID_1_)" d="M66.9,50V19.4h11.8V50H66.9z M72.8,1.6c-3.7,0-6.7,3-6.7,6.7s3,6.7,6.7,6.7s6.7-3,6.7-6.7
	S76.5,1.6,72.8,1.6z M103.3,50h11.8V31.8c0-7.2-5.8-13.1-13.1-13.1c-3.4,0-6.4,0.9-8.7,2.4v-1.8H81.5V50h11.8V33.3c0-2.8,2.2-5,5-5
	c2.8,0,5,2.2,5,5V50z M155.8,0.5V50h11.8V0.5H155.8z M132.7,18.8c-8.8,0-15.9,7.1-15.9,15.9s7.1,15.9,15.9,15.9c3.7,0,7-1.3,8.5-3.3
	V50h11.9V19.4h-11.9v1.8C138.7,19.7,135.8,18.8,132.7,18.8z M141.8,34.7c0,3.7-3,6.7-6.7,6.7s-6.7-3-6.7-6.7c0-3.7,3-6.7,6.7-6.7
	S141.8,31,141.8,34.7z"/>
</svg>
