<?xml version="1.0" encoding="utf-8"?>
<!-- Generator: Adobe Illustrator 25.4.3, SVG Export Plug-In . SVG Version: 6.00 Build 0)  -->
<svg version="1.1" id="Layer_1" xmlns="http://www.w3.org/2000/svg" xmlns:xlink="http://www.w3.org/1999/xlink" x="0px" y="0px"
	 viewBox="0 0 310.5 234" enable-background="new 0 0 310.5 234" xml:space="preserve">
<path id="Record__x26__Arm_00000175323725792029361720000001973385604064288684_" fill="#FFFFFF" d="M138,117c0,11.6-9.4,21-21,21
	s-21-9.4-21-21s9.4-21,21-21S138,105.4,138,117z M192.5,201.4c-2.2-0.5-4.3-1.6-5.8-3.4c-1.7-1.9-2.5-4.3-2.5-6.6
	c0-1.9-1.4-3.5-3.3-3.9c-2.3-0.4-4.5-1.6-6.2-3.5c-1.7-1.9-2.5-4.3-2.5-6.6c0-1.9-1.4-3.5-3.3-3.9c-2.3-0.4-4.5-1.6-6.2-3.5
	c-1.3-1.5-2.1-3.2-2.4-5c-0.1-0.7-0.6-1.3-1.3-1.5s-1.4-0.1-2,0.4c-10.7,9.2-24.7,14.7-39.9,14.7c-33.9,0-61.5-27.6-61.5-61.5
	c0-21.7,11.3-40.8,28.3-51.8c0.6-0.4,1-1.1,0.9-1.8c0-0.7-0.5-1.4-1.1-1.7C82,61,80.5,59.7,79.5,58c-1.4-2.1-1.9-4.6-1.6-6.9
	c0.2-1.9-0.9-3.7-2.7-4.3c-2.2-0.7-4.3-2.2-5.6-4.4c-1.4-2.1-1.9-4.6-1.6-6.9c0.2-1.9-0.9-3.7-2.7-4.3C63,30.5,61,29,59.7,26.9
	c-1.3-2-1.8-4.4-1.6-6.6c0.1-0.8-0.3-1.5-0.9-1.9c-0.6-0.4-1.5-0.4-2.1,0C22.3,39.1,0.5,75.5,0.5,117c0,64.2,52.3,116.5,116.5,116.5
	c29.2,0,55.9-10.8,76.4-28.6c0.6-0.5,0.8-1.3,0.6-2S193.2,201.6,192.5,201.4z M170.4,147.5c5.2-9,8.1-19.4,8.1-30.5
	c0-33.8-27.5-61.4-61.3-61.5c-0.7,0-1.4-0.4-1.7-1c-0.4-0.6-0.3-1.4,0-2c1.2-2,1.7-4.4,1.4-6.9c-0.3-2-1.1-3.7-2.3-5.1
	c-1.2-1.5-1.2-3.6,0-5.1c1.5-1.8,2.4-4.2,2.4-6.7c0-2.5-0.9-4.9-2.4-6.7c-1.2-1.5-1.2-3.6,0-5.1c1.5-1.8,2.4-4.1,2.4-6.7
	c0-2.4-0.8-4.7-2.2-6.5c-0.5-0.6-0.6-1.4-0.2-2.1s1-1.1,1.8-1.1c0.2,0,0.4,0,0.6,0c43.1,0,80.8,23.5,100.9,58.3l29.6-55.3l62.4,0
	l-77.1,144L170.4,147.5z"/>
</svg>
